<svg version="1.2" xmlns="http://www.w3.org/2000/svg" viewBox="0 0 237 234" width="237" height="234">
	<title>dollar</title>
	<style>
		.s0 { fill: #ffffff } 
		.s1 { fill: #000000 } 
	</style>
	<g>
		<g id="_Слой_1">
			<path fill-rule="evenodd" class="s0" d="m122.1 226c-60.5 0-109.4-48.9-109.4-109.4 0-60.5 48.9-109.4 109.4-109.4 60.5 0 109.4 48.9 109.4 109.4 0 60.5-48.9 109.4-109.4 109.4z"/>
			<path fill-rule="evenodd" class="s1" d="m109.7 44.8h18v18h-18z"/>
			<path fill-rule="evenodd" class="s1" d="m109.7 174.7h18v18h-18z"/>
			<path id="S" class="s1" aria-label="S"  d="m160.8 62.4v15.7q-11-4.4-20.8-6.5-9.8-2.2-19-2.2-15.8 0-24.5 5.1-8.5 5.2-8.5 14.6 0 7.9 5.6 12 5.8 4 21.8 6.5l11.7 2q21.7 3.5 32 12.2 10.4 8.6 10.4 23.2 0 17.4-14.1 26.4-13.9 8.9-40.9 8.9-10.2 0-21.7-1.9-11.5-1.9-23.8-5.7v-16.6q11.9 5.5 23.2 8.3 11.3 2.8 22.3 2.8 16.6 0 25.7-5.5 9-5.4 9-15.5 0-8.8-6.5-13.8-6.5-4.9-21.3-7.4l-11.8-1.9q-21.7-3.6-31.4-11.3-9.7-7.7-9.7-21.4 0-15.9 13.3-25 13.5-9.1 37-9.1 10.1 0 20.6 1.5 10.5 1.5 21.4 4.6z"/>
		</g>
	</g>
</svg>