<svg version="1.2" xmlns="http://www.w3.org/2000/svg" viewBox="0 0 381 309" width="381" height="309">
	<title>Двойная стрелка</title>
	<style>
		.s0 { fill: #ffffff } 
	</style>
	<g>
		<g id="_Слой_1">
			<path class="s0" d="m27.4 15h33.9c10 0 19.5 4.2 26.2 11.6l108.9 120.9c4.9 5.4 4.8 13.6 0 19l-112.5 123.7c-5.7 6.3-13.8 9.8-22.2 9.8h-43.5c-6.1 0-9.3-7.2-5.2-11.8l117.7-130.7-110.2-127.1c-5.2-6-0.9-15.4 7-15.4z"/>
			<path class="s0" d="m194.4 15h33.9c10 0 19.5 4.2 26.2 11.6l108.9 120.9c4.9 5.4 4.8 13.6 0 19l-112.5 123.7c-5.7 6.3-13.8 9.8-22.2 9.8h-43.5c-6.1 0-9.3-7.2-5.2-11.8l117.7-130.7-110.2-127.1c-5.2-6-0.9-15.4 7-15.4z"/>
		</g>
	</g>
</svg>