<svg version="1.2" xmlns="http://www.w3.org/2000/svg" viewBox="0 0 195 191" width="195" height="191">
	<title>Check for a Confirmation</title>
	<style>
		.s0 { fill: #ffffff } 
	</style>
	<g>
		<g id="_Слой_1">
			<path fill-rule="evenodd" class="s0" d="m30 147h24c1.1 0 2 0.9 2 2 0 1.1-0.9 2-2 2h-24c-1.1 0-2-0.9-2-2 0-1.1 0.9-2 2-2z"/>
			<path fill-rule="evenodd" class="s0" d="m141 147h24c1.1 0 2 0.9 2 2 0 1.1-0.9 2-2 2h-24c-1.1 0-2-0.9-2-2 0-1.1 0.9-2 2-2z"/>
			<g>
				<path class="s0" d="m157.7 13h-120.3c-12.9 0-23.3 10.4-23.3 23.3v65.1c0 12.9 10.4 23.3 23.3 23.3h18.2c-1.1-8.9-0.2-16.8 4.1-16.8 4.3 0 13.2-1.2 18-3.6 7.8-3.9 13.2-8.4 15.9-9.6 2.6-1.1 4.6-1.3 6.2 0 1.7 1.3 16.4 10.8 27.2 12q10.8 1.2 12 3.6c0.5 1.1 0.6 6.9-0.5 14.4h19.2c12.9 0 23.3-10.4 23.3-23.3v-65.1c0-12.9-10.4-23.3-23.3-23.3zm8.9 103.3l-56.3-46.9c-1.6 0.8-3.3 1.6-5.1 2.3-5.2 1.9-10.8 2.1-16.2 0.6-2-0.6-4-1.4-5.8-2.5l-54.9 45.3-2.6-2.2c0.1-0.2 47.2-39 54.5-45-0.3-0.3-0.7-0.5-1-0.8l-52.8-43.1c-0.9-0.7-0.8-2 0-2.7 0.8-0.6 2-0.6 2.8 0l54.1 44.7c1.7 1.4 3.8 2.4 6 2.9 5.7 1.2 11.6 0.9 17-1.1 1.6-0.6 3.1-1.4 4.5-2.5l54.6-44.4c0.6-0.5 1.4-0.4 2 0.1l0.3 0.4c0.6 0.6 0.5 1.5-0.1 2l-51.4 41.8c-1 0.8-2 1.5-3.1 2.3l55.8 45.1-2.4 3.6z"/>
				<path class="s0" d="m117.2 122.2c-2-2-5.1-2-7.2-0.1l-2.8 2.6h11.3c-0.2-0.9-0.6-1.8-1.4-2.5z"/>
			</g>
			<path class="s0" d="m132 116q-1-2-10-3c-9-1-21.2-8.9-22.6-10-1.4-1-3-1-5.2 0-2.2 1-6.7 4.7-13.2 8-4 2-12.2 3-15 3-6 0-4 18 0 28 4 10 12 21 21 27 9 6 10.3 5.1 10.3 5.1 0 0 16.7-7.1 25.7-21.1 9-14 10-35 9-37zm-18.1 16l-16.5 15.7c-1.4 1.3-3.5 1.3-4.8 0l-7.8-7.2c-1.5-1.4-1.6-3.8-0.1-5.2l0.5-0.5c1.6-1.6 4.1-1.7 5.8-0.2l4 3.4 13-12.2c1.7-1.6 4.3-1.5 6 0 1.7 1.7 1.7 4.4 0 6.1z"/>
			<path class="s0" d="m54 157h-18c-0.6 0-1.1 0.3-1.5 0.7l-8.5 6.7c-1 0.8-1.1 2.3-0.2 3.3 0.7 0.7 1.9 0.8 2.6 0.1l8.4-6.9h17.2c1.1 0 2-0.9 2-2 0-1.1-0.9-2-2-2z"/>
			<path class="s0" d="m54 140h-18c-0.6 0-1.1-0.3-1.5-0.7l-8.5-6.7c-1-0.8-1.1-2.3-0.2-3.3 0.7-0.7 1.9-0.8 2.6-0.1l8.4 6.9h17.2c1.1 0 2 0.9 2 2 0 1.1-0.9 2-2 2z"/>
			<path class="s0" d="m141.1 159h18c0.6 0 1.1 0.3 1.5 0.7l8.5 6.7c1 0.8 1.1 2.3 0.2 3.3-0.7 0.7-1.9 0.8-2.6 0.1l-8.4-6.9h-17.2c-1.1 0-2-0.9-2-2 0-1.1 0.9-2 2-2z"/>
			<path class="s0" d="m141.1 139h18c0.6 0 1.1-0.3 1.5-0.7l8.5-6.7c1-0.8 1.1-2.3 0.2-3.3-0.7-0.7-1.9-0.8-2.6-0.1l-8.4 6.9h-17.2c-1.1 0-2 0.9-2 2 0 1.1 0.9 2 2 2z"/>
		</g>
	</g>
</svg>